<?xml version="1.0" encoding="utf-8"?>
<!-- Generator: Adobe Illustrator 26.5.0, SVG Export Plug-In . SVG Version: 6.00 Build 0)  -->
<svg version="1.1" id="Camada_1" xmlns="http://www.w3.org/2000/svg" xmlns:xlink="http://www.w3.org/1999/xlink" x="0px" y="0px"
	 viewBox="0 300 1000 400" style="enable-background:new 0 0 1000 1000;" xml:space="preserve">
<style type="text/css">
	.st0{fill:#24285B;}
	.st1{fill:#00B4C9;}
	.st2{fill:#FFD200;}
</style>
<g>
	<g>
		<path class="st0" d="M132.29,482.91c-0.61-10.02-1.32-18.04-2.12-24.07c5.28,2.35,9.98,3.99,14.11,4.9
			c4.12,0.92,7.74,1.38,10.85,1.38c4.1,0,7.36-0.6,9.79-1.8c2.43-1.2,3.64-2.98,3.64-5.33c0-0.8-0.12-1.56-0.35-2.29
			c-0.24-0.73-0.68-1.55-1.34-2.47c-0.66-0.92-1.6-1.92-2.83-3l-13.3-11.57c-3.11-2.63-5.28-4.54-6.51-5.72
			c-2.5-2.4-4.44-4.63-5.83-6.7c-1.39-2.07-2.41-4.18-3.04-6.32c-0.64-2.14-0.95-4.41-0.95-6.81c0-2.87,0.5-5.68,1.52-8.43
			c1.01-2.75,2.53-5.33,4.55-7.73c2.02-2.4,4.7-4.47,8.05-6.21c3.34-1.74,6.92-2.93,10.73-3.56c3.81-0.64,7.74-0.95,11.79-0.95
			c7.95,0,16.61,0.92,25.97,2.75c0.14,3.25,0.31,6.22,0.49,8.93c0.19,2.71,0.64,7.45,1.34,14.22c-4.33-1.74-8.28-2.95-11.86-3.63
			c-3.58-0.68-6.66-1.02-9.25-1.02c-3.67,0-6.72,0.68-9.14,2.05c-2.42,1.36-3.63,3.06-3.63,5.08c0,0.94,0.19,1.86,0.56,2.75
			c0.38,0.89,1.08,1.94,2.12,3.14c1.03,1.2,2.4,2.52,4.09,3.95s4.35,3.56,7.97,6.39l5.08,4.02c1.51,1.22,3.13,2.71,4.87,4.45
			c1.74,1.74,3.25,3.46,4.52,5.15s2.25,3.25,2.93,4.66c0.68,1.41,1.19,2.83,1.52,4.27c0.33,1.43,0.49,2.98,0.49,4.62
			c0,4.23-1.01,8.27-3.03,12.1c-2.02,3.83-4.89,6.99-8.61,9.46c-3.72,2.47-7.8,4.2-12.24,5.19c-4.45,0.99-9.14,1.48-14.08,1.48
			C153.53,486.23,143.91,485.12,132.29,482.91z"/>
		<path class="st0" d="M234.48,484.39c2.34-22.87,3.74-48.04,4.21-75.51l-30.04,0.78l0.35-7.83c0.19-4.19,0.33-8.77,0.42-13.76
			c13.36,0.09,28.93,0.14,46.71,0.14l17.43-0.07h16.93l9.17-0.07l-0.42,6.91c-0.19,3.71-0.32,6.77-0.39,9.2
			c-0.07,2.42-0.11,4.25-0.11,5.49c-10.06-0.52-18.36-0.78-24.89-0.78h-4.94c-0.71,8.31-1.26,15.99-1.63,23.04
			c-0.52,10.1-0.92,19.9-1.21,29.41c-0.28,9.51-0.43,17.2-0.43,23.07c-7.71-0.09-12.7-0.14-14.95-0.14
			C248.68,484.25,243.27,484.3,234.48,484.39z"/>
		<path class="st0" d="M309.02,388.06c7.33,0.09,12.51,0.14,15.52,0.14c3.76,0,8.77-0.05,15.02-0.14l-2.1,29.99
			c-0.42,5.65-0.74,10.94-0.94,15.88c-0.21,4.94-0.32,8.35-0.32,10.23c0,3.58,0.26,6.56,0.78,8.96c0.52,2.4,1.46,4.43,2.82,6.1
			c1.36,1.67,3.25,2.93,5.68,3.78c2.42,0.85,4.95,1.27,7.58,1.27c2.26,0,4.37-0.31,6.35-0.92c1.55-0.5,2.94-1.2,4.16-2.1
			c1.08-0.84,2.02-1.82,2.82-2.94c0.99-1.35,1.86-3.03,2.61-5.04c0.75-1.9,1.32-4.37,1.69-7.39c0.42-3.08,0.99-10.08,1.69-21.01
			c0.61-9.3,1.08-17.82,1.41-25.55c0.28-7.51,0.54-11.26,0.78-11.26c7.1,0,12.7,0,16.8,0h14.33l-3.43,50.11
			c-0.05,0.94-0.07,1.72-0.07,2.33c-0.19,9.79-0.79,16.69-1.8,20.71c-1.01,4.02-2.69,7.52-5.05,10.48
			c-2.35,2.96-5.79,5.63-10.31,8.01c-4.52,2.38-9.65,4.06-15.39,5.05c-5.74,0.99-11.55,1.48-17.44,1.48
			c-5.27,0-10.35-0.38-15.25-1.13c-4.52-0.75-8.59-1.85-12.21-3.28c-3.62-1.43-6.78-3.12-9.46-5.05c-2.45-1.79-4.33-3.61-5.65-5.47
			c-1.32-1.86-2.35-4.08-3.11-6.67c-0.85-2.92-1.27-6.05-1.27-9.39c0-1.13,0.05-2.83,0.14-5.12s0.31-5.56,0.64-9.85l0.92-11.29
			c0.24-2.96,0.5-7.32,0.78-13.06L309.02,388.06z"/>
		<path class="st0" d="M417.27,484.39c1.04-10.73,1.75-19.31,2.13-25.76c0.57-9.6,1.14-22.02,1.7-37.26
			c0.43-11.67,0.64-20.02,0.64-25.05v-8.26c5.5,0.14,10.25,0.21,14.25,0.21c3.86,0,8.91-0.11,15.17-0.32
			c6.26-0.21,12.14-0.32,17.64-0.32c6.3,0,11.83,0.38,16.58,1.13c4.75,0.75,9.18,2.31,13.3,4.66c4.11,2.35,7.56,5.43,10.34,9.25
			c2.77,3.81,4.89,8.27,6.35,13.37c1.46,5.1,2.19,10.36,2.19,15.77c0,5.32-0.56,10.43-1.69,15.35c-1.13,4.92-2.71,9.35-4.73,13.3
			c-2.02,3.95-4.39,7.35-7.09,10.2c-2.71,2.85-5.8,5.28-9.28,7.3c-2.59,1.51-5.2,2.68-7.83,3.53c-2.64,0.85-6.24,1.53-10.8,2.05
			c-5.08,0.56-10.84,0.85-17.29,0.85l-28.51-0.21C427.64,484.18,423.29,484.25,417.27,484.39z M447.78,463.15
			c2.59,0.24,5.29,0.35,8.11,0.35c4.8,0,9.07-0.42,12.84-1.27c3.76-0.85,7.06-2.66,9.91-5.43c2.84-2.78,4.95-6.34,6.31-10.69
			c1.36-4.35,2.05-8.81,2.05-13.37c0-5.6-1.01-10.32-3.03-14.15c-2.02-3.83-4.72-6.5-8.08-8.01c-3.36-1.51-7.94-2.26-13.73-2.26
			c-3.39,0-7.39,0.14-12,0.42L447.78,463.15z"/>
		<path class="st0" d="M549.31,484.39c0.47-3.81,1.03-10.28,1.69-19.41c0.66-9.13,0.99-15.57,0.99-19.34l-32.32-57.59
			c7.1,0.09,12.95,0.14,17.56,0.14c4.42,0,9.71-0.05,15.87-0.14c1.88,4.7,4.43,10.31,7.65,16.83c3.22,6.51,5.84,12.33,7.87,17.46
			c5.41-9.55,9.76-16.99,13.05-22.33c3.29-5.34,5.64-9.33,7.05-11.96c5.98,0.09,11.73,0.14,17.24,0.14c2.92,0,8.22-0.05,15.9-0.14
			l-30.98,45.66c-6.16,9.13-9.25,13.9-9.25,14.33l-0.07,0.71v0.71l-0.07,0.71L581,460.89c-0.33,7.1-0.59,14.94-0.77,23.5
			c-6.64-0.09-11.76-0.14-15.39-0.14C561.12,484.25,555.95,484.3,549.31,484.39z"/>
	</g>
</g>
<g>
	<g>
		<path class="st0" d="M657.49,382.69l40.47,84.84l17.49-84.84h10.26l-21.39,101.17h-9.83l-41.48-86.57l-17.92,86.57h-10.26
			l21.39-101.17H657.49z"/>
		<path class="st0" d="M769.07,412.03c18.07,0,30.49,13.59,30.49,32.95c0,22.11-16.76,40.32-37.14,40.32
			c-17.63,0-30.35-13.73-30.35-32.95C732.07,430.1,748.69,412.03,769.07,412.03z M789.16,444.98c0-14.02-8.24-23.7-20.52-23.7
			c-14.6,0-26.3,13.87-26.3,30.93c0,14.02,8.38,23.7,20.67,23.7C777.59,475.91,789.16,462.18,789.16,444.98z"/>
		<path class="st0" d="M820.23,483.86l-3.61-70.53h9.83l2.31,56.36l28.47-56.36h9.25l4.48,56.36l26.3-56.36h10.26l-34.25,70.53
			h-10.12l-4.19-56.8l-28.62,56.8H820.23z"/>
	</g>
</g>
<g>
	<g>
		<path class="st1" d="M479.16,669.79c-3.92,0-7.1-3.18-7.1-7.1v-11.64c0-53.43-43.47-96.91-96.91-96.91H167.34
			c-8.38,0-16.35-1.02-23.7-3.04c-16.28-4.47-30.03-13.25-39.77-25.39c-10-12.46-15.29-27.89-15.29-44.62c0-3.92,3.18-7.1,7.1-7.1
			s7.1,3.18,7.1,7.1c0,27.18,17.1,48.76,44.62,56.31c6.12,1.68,12.83,2.53,19.94,2.53h207.81c61.27,0,111.11,49.84,111.11,111.11
			v11.64C486.26,666.61,483.08,669.79,479.16,669.79z"/>
	</g>
</g>
<g>
	<g>
		<path class="st2" d="M435.54,670.81c-0.09,0-0.18,0-0.28,0c-3.92-0.15-6.97-3.45-6.82-7.37c0.78-20.4-4.79-36.95-16.56-49.19
			c-12.75-13.25-32.09-20.54-54.46-20.54H160.61C98.52,593.71,48,543.19,48,481.1c0-3.92,3.18-7.1,7.1-7.1s7.1,3.18,7.1,7.1
			c0,54.26,44.14,98.41,98.41,98.41h196.81c26.27,0,49.24,8.84,64.69,24.9c14.35,14.91,21.45,35.52,20.52,59.58
			C442.49,667.81,439.34,670.81,435.54,670.81z"/>
	</g>
</g>
<g>
	<g>
		<path class="st1" d="M526.84,670.81c-3.92,0-7.1-3.18-7.1-7.1v-11.64c0-61.27,49.84-111.11,111.11-111.11h207.81
			c7.11,0,13.82-0.85,19.94-2.53c27.52-7.55,44.61-29.13,44.61-56.31c0-3.92,3.18-7.1,7.1-7.1s7.1,3.18,7.1,7.1
			c0,16.73-5.29,32.15-15.29,44.62c-9.74,12.14-23.5,20.92-39.77,25.39c-7.35,2.02-15.32,3.04-23.7,3.04H630.85
			c-53.43,0-96.91,43.47-96.91,96.91v11.64C533.94,667.63,530.76,670.81,526.84,670.81z"/>
	</g>
</g>
<g>
	<g>
		<path class="st2" d="M570.46,671.82c-3.8,0-6.94-3-7.09-6.83c-0.93-24.06,6.17-44.67,20.52-59.58
			c15.45-16.05,38.42-24.9,64.69-24.9h196.81c54.26,0,98.41-44.14,98.41-98.41c0-3.92,3.18-7.1,7.1-7.1s7.1,3.18,7.1,7.1
			c0,62.09-50.52,112.61-112.61,112.61H648.58c-22.37,0-41.71,7.29-54.46,20.54c-11.78,12.24-17.35,28.79-16.56,49.19
			c0.15,3.92-2.9,7.22-6.82,7.37C570.64,671.82,570.55,671.82,570.46,671.82z"/>
	</g>
</g>
</svg>
